<svg width="24" height="24" viewBox="0 0 24 24" fill="none" xmlns="http://www.w3.org/2000/svg">
<path d="M2 2L2.28939 2.09646C3.7314 2.57714 4.45241 2.81746 4.8648 3.38964C5.2772 3.96181 5.2772 4.72181 5.2772 6.24183V9.1006C5.2772 12.1903 5.2772 13.7352 6.23707 14.6951C7.19694 15.655 8.74182 15.655 11.8316 15.655H20.5708" stroke="#212121" stroke-width="1.5" stroke-linecap="round"/>
<path d="M8.00823 18.3857C8.91321 18.3857 9.64683 19.1194 9.64683 20.0243C9.64683 20.9293 8.91321 21.6629 8.00823 21.6629C7.10325 21.6629 6.36963 20.9293 6.36963 20.0243C6.36963 19.1194 7.10325 18.3857 8.00823 18.3857Z" stroke="#212121" stroke-width="1.5"/>
<path d="M17.8398 18.3857C18.7447 18.3857 19.4784 19.1193 19.4784 20.0243C19.4784 20.9293 18.7447 21.6629 17.8398 21.6629C16.9348 21.6629 16.2012 20.9293 16.2012 20.0243C16.2012 19.1193 16.9348 18.3857 17.8398 18.3857Z" stroke="#212121" stroke-width="1.5"/>
<path d="M11.8319 8.5542H8.55469" stroke="#212121" stroke-width="1.5" stroke-linecap="round"/>
<path d="M5.27734 5.27734H17.7858C20.0306 5.27734 21.153 5.27734 21.6388 6.01391C22.1244 6.75048 21.6822 7.78215 20.7979 9.84554L20.3297 10.9379C19.9169 11.9012 19.7105 12.3829 19.3 12.6536C18.8896 12.9241 18.3656 12.9241 17.3176 12.9241H5.27734" stroke="#212121" stroke-width="1.5"/>
</svg>
